<svg width="333" height="303" viewBox="0 0 333 303" fill="none" xmlns="http://www.w3.org/2000/svg">
<rect width="333" height="303" fill="white"/>
<path fill-rule="evenodd" clip-rule="evenodd" d="M211.35 101.992C227.18 77.3419 263.92 31.0066 295 27.1216C323.413 23.57 306.626 98.5914 290.839 149.289C298.65 160.481 303 172.911 303 186C303 193.612 301.529 201.001 298.762 208.053L310 259L259.811 250.861C235.298 265.83 202.297 275 166 275C135.807 275 107.895 268.655 85.2515 257.905L23 268L35.2215 212.596C31.1788 204.197 29 195.264 29 186C29 172.223 33.8189 159.177 42.4214 147.534C29.1363 99.4328 19.6366 43.0312 44.3598 46.1216C68.9271 49.1925 97.0309 78.7868 115.549 103.229C131.162 99.2093 148.184 97 166 97C181.894 97 197.156 98.7583 211.35 101.992Z" fill="#E38800"/>
<path d="M295 27.1216L295.31 29.6023L295 27.1216ZM211.35 101.992L210.794 104.429L212.505 104.819L213.453 103.343L211.35 101.992ZM290.839 149.289L288.452 148.546L288.088 149.715L288.789 150.72L290.839 149.289ZM298.762 208.053L296.434 207.14L296.156 207.848L296.32 208.591L298.762 208.053ZM310 259L309.6 261.468L313.234 262.057L312.441 258.461L310 259ZM259.811 250.861L260.211 248.394L259.298 248.245L258.508 248.728L259.811 250.861ZM85.2515 257.905L86.3237 255.647L85.6201 255.313L84.8513 255.437L85.2515 257.905ZM23 268L20.5587 267.461L19.7655 271.057L23.4002 270.468L23 268ZM35.2215 212.596L37.6629 213.134L37.849 212.29L37.4741 211.511L35.2215 212.596ZM42.4214 147.534L44.432 149.02L45.155 148.041L44.8312 146.869L42.4214 147.534ZM44.3598 46.1216L44.0497 48.6023L44.0497 48.6023L44.3598 46.1216ZM115.549 103.229L113.556 104.739L114.561 106.065L116.172 105.65L115.549 103.229ZM294.69 24.6409C286.4 25.6771 277.91 29.5122 269.675 34.9007C261.421 40.3015 253.284 47.3545 245.682 55.0081C230.481 70.3121 217.232 88.2057 209.246 100.641L213.453 103.343C221.297 91.128 234.333 73.529 249.23 58.5317C256.676 51.0346 264.542 44.2347 272.413 39.0847C280.302 33.9223 288.059 30.5086 295.31 29.6023L294.69 24.6409ZM293.226 150.032C301.135 124.635 309.336 93.0201 311.98 68.1259C313.297 55.7366 313.276 44.6941 310.953 36.871C309.785 32.9366 307.965 29.5747 305.202 27.3313C302.367 25.0284 298.812 24.1257 294.69 24.6409L295.31 29.6023C298.291 29.2296 300.427 29.8944 302.05 31.2126C303.746 32.5901 305.153 34.9026 306.16 38.2942C308.187 45.123 308.311 55.3384 307.008 67.5977C304.416 92.0007 296.331 123.245 288.452 148.546L293.226 150.032ZM305.5 186C305.5 172.333 300.953 159.413 292.889 147.858L288.789 150.72C296.348 161.55 300.5 173.488 300.5 186H305.5ZM301.089 208.966C303.965 201.638 305.5 193.94 305.5 186H300.5C300.5 193.284 299.093 200.364 296.434 207.14L301.089 208.966ZM312.441 258.461L301.203 207.514L296.32 208.591L307.559 259.539L312.441 258.461ZM259.411 253.329L309.6 261.468L310.4 256.532L260.211 248.394L259.411 253.329ZM166 277.5C202.696 277.5 236.159 268.233 261.114 252.995L258.508 248.728C234.437 263.426 201.899 272.5 166 272.5V277.5ZM84.1794 260.164C107.185 271.085 135.468 277.5 166 277.5V272.5C136.146 272.5 108.604 266.224 86.3237 255.647L84.1794 260.164ZM23.4002 270.468L85.6517 260.373L84.8513 255.437L22.5998 265.532L23.4002 270.468ZM32.7802 212.057L20.5587 267.461L25.4413 268.539L37.6629 213.134L32.7802 212.057ZM26.5 186C26.5 195.666 28.7752 204.968 32.969 213.68L37.4741 211.511C33.5824 203.427 31.5 194.862 31.5 186H26.5ZM40.4107 146.048C31.5381 158.056 26.5 171.613 26.5 186H31.5C31.5 172.833 36.0996 160.297 44.432 149.02L40.4107 146.048ZM44.6699 43.6409C41.1001 43.1947 37.9332 43.8075 35.2793 45.5174C32.6581 47.2063 30.7784 49.8097 29.4573 52.9227C26.8502 59.0659 26.1636 67.7999 26.6403 77.7506C27.5992 97.7641 33.3577 124.108 40.0116 148.2L44.8312 146.869C38.1999 122.859 32.566 96.9513 31.6346 77.5113C31.1662 67.7353 31.91 59.942 34.06 54.876C35.1174 52.3843 36.4478 50.7125 37.9874 49.7206C39.4943 48.7497 41.4387 48.2759 44.0497 48.6023L44.6699 43.6409ZM117.541 101.719C108.221 89.4171 96.4505 75.7657 83.8672 64.778C71.3555 53.8529 57.7162 45.2717 44.6699 43.6409L44.0497 48.6023C55.5707 50.0424 68.267 57.7939 80.5785 68.5442C92.8183 79.232 104.358 92.5988 113.556 104.739L117.541 101.719ZM166 94.5C147.979 94.5 130.748 96.7345 114.925 100.808L116.172 105.65C131.577 101.684 148.389 99.5 166 99.5V94.5ZM211.905 99.5542C197.525 96.2784 182.077 94.5 166 94.5V99.5C181.711 99.5 196.786 101.238 210.794 104.429L211.905 99.5542Z" fill="black"/>
<ellipse cx="197" cy="151" rx="30" ry="33" fill="white"/>
<ellipse cx="189.5" cy="160" rx="12.5" ry="14" fill="black"/>
<ellipse rx="30" ry="33" transform="matrix(-1 0 0 1 130 151)" fill="white"/>
<ellipse rx="12.5" ry="14" transform="matrix(-1 0 0 1 137.5 160)" fill="black"/>
<path d="M160 211V235" stroke="black" stroke-width="5"/>
<path d="M200 195.043C173.912 184.099 144.781 190.483 133.476 195.043C130.867 196.494 123.824 201.758 142.607 211.21C166.086 223.024 162.173 211.21 200 195.043Z" fill="#FFA3C4" stroke="black" stroke-width="5"/>
<path d="M160 231C162.667 239.667 173.2 251.8 194 231" stroke="black" stroke-width="5"/>
<path d="M160 231C157.333 239.667 146.8 251.8 126 231" stroke="black" stroke-width="5"/>
</svg>
